<svg width="20" height="20" viewBox="0 0 20 20" fill="none" xmlns="http://www.w3.org/2000/svg">
<path d="M3.3335 10.0001C3.3335 10.2211 3.42129 10.4331 3.57757 10.5893C3.73385 10.7456 3.94582 10.8334 4.16683 10.8334C4.38784 10.8334 4.5998 10.7456 4.75608 10.5893C4.91237 10.4331 5.00016 10.2211 5.00016 10.0001C5.00016 9.77907 4.91237 9.56711 4.75608 9.41083C4.5998 9.25455 4.38784 9.16675 4.16683 9.16675C3.94582 9.16675 3.73385 9.25455 3.57757 9.41083C3.42129 9.56711 3.3335 9.77907 3.3335 10.0001ZM9.16683 10.0001C9.16683 10.2211 9.25463 10.4331 9.41091 10.5893C9.56719 10.7456 9.77915 10.8334 10.0002 10.8334C10.2212 10.8334 10.4331 10.7456 10.5894 10.5893C10.7457 10.4331 10.8335 10.2211 10.8335 10.0001C10.8335 9.77907 10.7457 9.56711 10.5894 9.41083C10.4331 9.25455 10.2212 9.16675 10.0002 9.16675C9.77915 9.16675 9.56719 9.25455 9.41091 9.41083C9.25463 9.56711 9.16683 9.77907 9.16683 10.0001ZM15.0002 10.0001C15.0002 10.2211 15.088 10.4331 15.2442 10.5893C15.4005 10.7456 15.6125 10.8334 15.8335 10.8334C16.0545 10.8334 16.2665 10.7456 16.4228 10.5893C16.579 10.4331 16.6668 10.2211 16.6668 10.0001C16.6668 9.77907 16.579 9.56711 16.4228 9.41083C16.2665 9.25455 16.0545 9.16675 15.8335 9.16675C15.6125 9.16675 15.4005 9.25455 15.2442 9.41083C15.088 9.56711 15.0002 9.77907 15.0002 10.0001Z" fill="#1F2937" stroke="#1F2937" stroke-linecap="round" stroke-linejoin="round"/>
</svg>
