<svg width="24" height="24" viewBox="0 0 24 24" fill="none" xmlns="http://www.w3.org/2000/svg">
<path fill-rule="evenodd" clip-rule="evenodd" d="M5.47007 5.46934C5.6107 5.32889 5.80132 5.25 6.00007 5.25C6.19882 5.25 6.38945 5.32889 6.53007 5.46934L18.5301 17.4693C18.6038 17.538 18.6629 17.6208 18.7039 17.7128C18.7448 17.8048 18.7669 17.9041 18.7687 18.0048C18.7704 18.1055 18.7519 18.2055 18.7142 18.2989C18.6765 18.3923 18.6203 18.4772 18.5491 18.5484C18.4779 18.6196 18.3931 18.6757 18.2997 18.7135C18.2063 18.7512 18.1063 18.7697 18.0056 18.7679C17.9048 18.7662 17.8055 18.7441 17.7135 18.7031C17.6215 18.6621 17.5387 18.603 17.4701 18.5293L5.47007 6.52934C5.32962 6.38871 5.25073 6.19809 5.25073 5.99934C5.25073 5.80059 5.32962 5.60997 5.47007 5.46934Z" fill="#1F2937"/>
<path fill-rule="evenodd" clip-rule="evenodd" d="M18.5301 5.46934C18.6705 5.60997 18.7494 5.80059 18.7494 5.99934C18.7494 6.19809 18.6705 6.38871 18.5301 6.52934L6.53009 18.5293C6.38792 18.6618 6.19987 18.7339 6.00557 18.7305C5.81127 18.7271 5.62588 18.6484 5.48847 18.511C5.35106 18.3735 5.27234 18.1882 5.26892 17.9939C5.26549 17.7996 5.33761 17.6115 5.47009 17.4693L17.4701 5.46934C17.6107 5.32889 17.8013 5.25 18.0001 5.25C18.1988 5.25 18.3895 5.32889 18.5301 5.46934Z" fill="#1F2937"/>
</svg>
