<svg width="60" height="60" viewBox="0 0 60 60" fill="none" xmlns="http://www.w3.org/2000/svg">
<path d="M48.75 13.75L47.2008 38.8127C46.8048 45.216 46.607 48.4178 45.002 50.7198C44.2082 51.8578 43.1867 52.8183 42.0017 53.54C39.6052 55 36.3975 55 29.9817 55C23.5578 55 20.3457 55 17.9476 53.5372C16.762 52.8142 15.74 51.852 14.9467 50.712C13.3422 48.4065 13.1486 45.2002 12.7615 38.788L11.25 13.75" stroke="#D14343" stroke-width="3" stroke-linecap="round"/>
<path d="M7.5 13.75H52.5M40.1393 13.75L38.4328 10.2293C37.299 7.89065 36.732 6.7213 35.7542 5.99203C35.5375 5.83025 35.3078 5.68635 35.0675 5.56175C33.9848 5 32.6853 5 30.0863 5C27.422 5 26.09 5 24.9892 5.5853C24.7452 5.71502 24.5124 5.86475 24.2932 6.03293C23.3041 6.79175 22.7516 8.00387 21.6465 10.4281L20.1323 13.75" stroke="#D14343" stroke-width="3" stroke-linecap="round"/>
<path d="M23.75 41.25V26.25" stroke="#D14343" stroke-width="3" stroke-linecap="round"/>
<path d="M36.25 41.25V26.25" stroke="#D14343" stroke-width="3" stroke-linecap="round"/>
</svg>
