<svg width="18" height="18" viewBox="0 0 18 18" fill="none" xmlns="http://www.w3.org/2000/svg">
<rect x="0.159091" y="0.159091" width="17.6818" height="17.6818" rx="8.84091" fill="#2F80ED"/>
<rect x="0.159091" y="0.159091" width="17.6818" height="17.6818" rx="8.84091" stroke="#2F80ED" stroke-width="0.318182"/>
<path d="M4.81301 12.5342L5.08858 10.6447C5.10538 10.5212 5.16167 10.4064 5.24974 10.3178L10.5891 4.97124C10.6582 4.90112 10.7442 4.85003 10.8389 4.82291C10.9335 4.79579 11.0336 4.79356 11.1293 4.81643C11.6195 4.95192 12.0638 5.21769 12.415 5.58548C12.7818 5.93911 13.0457 6.38567 13.1786 6.87752C13.2015 6.97328 13.1992 7.07332 13.1721 7.16797C13.145 7.26261 13.0939 7.34865 13.0238 7.41777L7.67857 12.7576C7.58992 12.8454 7.47496 12.9018 7.35125 12.9183L5.46221 13.1938C5.37297 13.2069 5.28193 13.1987 5.19646 13.1699C5.11098 13.1412 5.03349 13.0927 4.97025 13.0284C4.90702 12.9641 4.85983 12.8858 4.83251 12.7999C4.80519 12.7139 4.79851 12.6227 4.81301 12.5337M9.57896 5.98817L12.0137 8.42289" stroke="white" stroke-width="0.680979" stroke-linecap="round" stroke-linejoin="round"/>
</svg>
