<svg width="135" height="17" viewBox="0 0 135 17" fill="none" xmlns="http://www.w3.org/2000/svg">
<path d="M13.032 6.38416V0.000163078H15.24L16.632 1.41616V14.9522L15.24 16.3682H13.032V9.98416H8.68802L6.04802 12.6482L4.48802 11.0882V9.09616L7.20002 6.38416H13.032ZM3.62402 0.000163078V16.3682H1.41602L1.95652e-05 14.9522V1.41616L1.41602 0.000163078H3.62402ZM34.2576 6.38416V8.59216L32.8416 9.98416C29.6896 9.98416 26.5456 9.98416 23.4096 9.98416V7.77616L24.8016 6.38416C27.9536 6.38416 31.1056 6.38416 34.2576 6.38416ZM34.2576 3.62416H26.2176L21.2256 8.61616C21.2256 9.54416 21.2256 10.4642 21.2256 11.3762C21.2256 11.8242 21.2256 12.2802 21.2256 12.7442C25.5616 12.7442 29.9056 12.7442 34.2576 12.7442V14.9522L32.8416 16.3682C28.2336 16.3682 23.6256 16.3682 19.0176 16.3682L17.6016 14.9522V9.12016H20.6976L17.6016 6.04816V1.41616L19.0176 0.000163078H21.2256V3.50416L24.7296 0.000163078H32.8416L34.2576 1.41616V3.62416ZM47.0346 3.62416L38.8266 11.8322V16.3682H36.6186L35.2266 14.9522V10.3202L45.5226 0.000163078H50.4426L51.8586 1.41616V14.9522L50.4426 16.3682H42.1866L40.7946 14.9522V12.7442C43.2746 12.7442 45.7546 12.7442 48.2346 12.7442V3.62416H47.0346ZM68.0441 16.3682H59.2841L52.8281 9.88816V1.41616L54.2201 0.000163078H56.4281V8.37616L60.7961 12.7442H65.8361V9.31216H68.0441L69.4601 10.7042V14.9522L68.0441 16.3682ZM79.4297 16.3682V8.61616L74.4377 3.62416H74.0297V7.05616H71.8217L70.4297 5.66416V1.41616L71.8217 0.000163078H85.6697L87.0617 1.41616V3.62416H79.5737L83.0537 7.10416V14.9522L81.6377 16.3682H79.4297ZM101.063 6.38416V0.000163078H103.271L104.663 1.41616V14.9522L103.271 16.3682H101.063V9.98416H96.7193L94.0793 12.6482L92.5193 11.0882V9.09616L95.2313 6.38416H101.063ZM91.6553 0.000163078V16.3682H89.4473L88.0313 14.9522V1.41616L89.4473 0.000163078H91.6553ZM124.66 3.62416L116.452 11.8322V16.3682H114.244L112.852 14.9522V10.3202L123.148 0.000163078H128.068L129.484 1.41616V14.9522L128.068 16.3682H119.812L118.42 14.9522V12.7442C120.9 12.7442 123.38 12.7442 125.86 12.7442V3.62416H124.66ZM130.453 0.000163078H132.661L134.053 1.41616V14.9522L132.661 16.3682H130.453V0.000163078Z" fill="#2F80ED"/>
</svg>
