<svg width="56" height="56" viewBox="0 0 56 56" fill="none" xmlns="http://www.w3.org/2000/svg">
<circle cx="28" cy="28" r="28" fill="#2FA4A9"/>
<path d="M33 23V27C33 29.7614 30.7614 32 28 32C25.2386 32 23 29.7614 23 27V23C23 20.2386 25.2386 18 28 18C30.7614 18 33 20.2386 33 23Z" stroke="white" stroke-width="1.5"/>
<path d="M33 23H30M33 27H30" stroke="white" stroke-width="1.5" stroke-linecap="round"/>
<path d="M36 27C36 31.4183 32.4183 35 28 35M28 35C23.5817 35 20 31.4183 20 27M28 35V38M28 38H31M28 38H25" stroke="white" stroke-width="1.5" stroke-linecap="round"/>
</svg>
