<svg width="20" height="20" viewBox="0 0 20 20" fill="none" xmlns="http://www.w3.org/2000/svg">
<path d="M13.6874 3.83757L14.5124 3.01258C15.1959 2.32914 16.304 2.32914 16.9874 3.01258C17.6708 3.69603 17.6708 4.80411 16.9874 5.48756L16.1624 6.31255M13.6874 3.83757L8.13794 9.387C7.71502 9.81 7.41499 10.3398 7.26993 10.9201L6.66663 13.3333L9.07988 12.73C9.66013 12.585 10.19 12.2849 10.613 11.862L16.1624 6.31255M13.6874 3.83757L16.1624 6.31255" stroke="#1F2937" stroke-linejoin="round"/>
<path d="M15.8333 11.2498C15.8333 13.9894 15.8332 15.3592 15.0767 16.2812C14.9382 16.4499 14.7834 16.6047 14.6146 16.7432C13.6927 17.4998 12.3228 17.4998 9.58325 17.4998H9.16667C6.02397 17.4998 4.45263 17.4998 3.47632 16.5235C2.50002 15.5473 2.5 13.9758 2.5 10.8332V10.4165C2.5 7.67694 2.5 6.30716 3.25662 5.3852C3.39514 5.21642 3.54992 5.06165 3.7187 4.92312C4.64066 4.1665 6.01043 4.1665 8.75 4.1665" stroke="#1F2937" stroke-linecap="round" stroke-linejoin="round"/>
</svg>
