<svg width="56" height="56" viewBox="0 0 56 56" fill="none" xmlns="http://www.w3.org/2000/svg">
<circle cx="28" cy="28" r="28" fill="#1F2937"/>
<path d="M20 28C20 24.7208 20 23.0812 20.8138 21.9189C21.1149 21.4889 21.4889 21.1149 21.9189 20.8138C23.0812 20 24.7208 20 28 20C31.2792 20 32.9188 20 34.0811 20.8138C34.5111 21.1149 34.8851 21.4889 35.1862 21.9189C36 23.0812 36 24.7208 36 28C36 31.2792 36 32.9188 35.1862 34.0811C34.8851 34.5111 34.5111 34.8851 34.0811 35.1862C32.9188 36 31.2792 36 28 36C24.7208 36 23.0812 36 21.9189 35.1862C21.4889 34.8851 21.1149 34.5111 20.8138 34.0811C20 32.9188 20 31.2792 20 28Z" stroke="white" stroke-width="1.5"/>
</svg>
